<?xml version="1.0" encoding="UTF-8" standalone="no"?>
<svg
   xmlns:dc="http://purl.org/dc/elements/1.1/"
   xmlns:cc="http://creativecommons.org/ns#"
   xmlns:rdf="http://www.w3.org/1999/02/22-rdf-syntax-ns#"
   xmlns:svg="http://www.w3.org/2000/svg"
   xmlns="http://www.w3.org/2000/svg"
   xmlns:sodipodi="http://sodipodi.sourceforge.net/DTD/sodipodi-0.dtd"
   xmlns:inkscape="http://www.inkscape.org/namespaces/inkscape"
   width="252.45219"
   height="36.29332"
   viewBox="0 0 252.45219 36.29332"
   version="1.1"
   id="svg2"
   inkscape:version="1.0.1 (c497b03c, 2020-09-10)"
   sodipodi:docname="pybossa.svg">
  <text
     xml:space="preserve"
     style="font-style:normal;font-weight:normal;font-size:48.10920000000000130px;line-height:1.25;font-family:sans-serif;fill:#ffffff;fill-opacity:1;stroke:none;stroke-width:1;"
     x="-0.16443574"
     y="35.823502"
     id="text842"><tspan
       sodipodi:role="line"
       id="tspan840"
       x="-0.16443574"
       y="35.823502"
       style="font-style:normal;font-variant:normal;font-weight:bold;font-stretch:normal;font-family:Roboto;-inkscape-font-specification:'Roboto Bold';fill:#ffffff;stroke-width:1;">Vaccinate</tspan></text>
  <metadata
     id="metadata17">
    <rdf:RDF>
      <cc:Work
         rdf:about="">
        <dc:format>image/svg+xml</dc:format>
        <dc:type
           rdf:resource="http://purl.org/dc/dcmitype/StillImage" />
        <dc:title>pybossa-logo</dc:title>
      </cc:Work>
    </rdf:RDF>
  </metadata>
  <sodipodi:namedview
     pagecolor="#ffffff"
     bordercolor="#666666"
     borderopacity="1"
     objecttolerance="10"
     gridtolerance="10"
     guidetolerance="10"
     inkscape:pageopacity="0"
     inkscape:pageshadow="2"
     inkscape:window-width="2560"
     inkscape:window-height="1290"
     id="namedview15"
     showgrid="false"
     fit-margin-top="0"
     fit-margin-left="0"
     fit-margin-right="0"
     fit-margin-bottom="0"
     inkscape:zoom="3.0371955"
     inkscape:cx="204.67456"
     inkscape:cy="-66.780946"
     inkscape:window-x="0"
     inkscape:window-y="23"
     inkscape:window-maximized="1"
     inkscape:current-layer="svg2"
     inkscape:document-rotation="0"
     inkscape:snap-page="true"
     inkscape:snap-bbox="true"
     inkscape:snap-bbox-midpoints="true"
     inkscape:bbox-nodes="true"
     inkscape:bbox-paths="true"
     showguides="true"
     inkscape:guide-bbox="true"
     inkscape:snap-intersection-paths="true" />
  <!-- Generator: Sketch 3.6.1 (26313) - http://www.bohemiancoding.com/sketch -->
  <title
     id="title4">pybossa-logo</title>
  <desc
     id="desc6">Created with Sketch.</desc>
  <defs
     id="defs8" />
  <g
     id="g3274"
     style="fill:#ffffff;stroke-width:0.728895"
     transform="matrix(1.37194,0,0,1.37194,-171.46679,31.185253)">
    <g
       id="g3260"
       style="fill:#ffffff;stroke-width:0.728895">
      <path
         fill="currentColor"
         d="m 304.70522,-15.115888 -1.36836,-1.365909 c -0.076,-0.07602 -0.20109,-0.07602 -0.27711,0 l -0.2771,0.277105 c -0.076,0.07602 -0.076,0.201085 0,0.277105 l 1.36836,1.36591 -1.11088,1.110874 -1.36836,-1.368362 c -0.076,-0.07602 -0.20108,-0.07602 -0.2771,0 l -0.27711,0.277106 c -0.076,0.07602 -0.076,0.201085 0,0.277105 l 1.37082,1.368362 -0.6474,0.647397 c -0.42424,0.424241 -1.00788,0.627778 -1.60378,0.564019 l -1.55964,-0.17411 -1.6283,1.628301 c -0.076,0.07602 -0.20108,0.07602 -0.2771,0 l -0.27711,-0.277106 c -0.076,-0.07602 -0.076,-0.201085 0,-0.277105 l 1.62585,-1.625849 -0.17411,-1.559638 c -0.0638,-0.58609 0.13242,-1.174632 0.56402,-1.603778 l 4.46066,-4.460662 3.32772,3.327718 z m 2.28796,-7.557867 1.94219,1.94219 c 0.076,0.07602 0.076,0.201086 0,0.277106 l -0.27711,0.277105 c -0.076,0.07602 -0.20108,0.07602 -0.2771,0 l -0.69399,-0.693989 -1.11088,1.110874 1.38798,1.387979 0.41689,0.416884 c 0.076,0.07602 0.076,0.201086 0,0.277106 l -0.83132,0.831316 c -0.076,0.07602 -0.20108,0.07602 -0.2771,0 l -0.41689,-0.416884 -3.33262,-3.327718 -0.41688,-0.416884 c -0.076,-0.07602 -0.076,-0.201085 0,-0.277105 l 0.83376,-0.831317 c 0.076,-0.07602 0.20109,-0.07602 0.27711,0 l 1.80241,1.802411 1.11087,-1.110873 -0.69398,-0.69399 c -0.076,-0.07602 -0.076,-0.201086 0,-0.277106 l 0.2771,-0.277105 c 0.0785,-0.07602 0.20109,-0.07602 0.27956,0 z"
         id="path897"
         style="fill:#ffffff;stroke-width:1.85079" />
      <path
         fill="currentColor"
         d="m 286.82553,-3.8916256 1.36836,1.36591 c 0.076,0.076 0.20109,0.076 0.27711,0 l 0.2771,-0.2771 c 0.076,-0.076 0.076,-0.20109 0,-0.27711 l -1.36836,-1.36591 1.11088,-1.11087 1.36836,1.36836 c 0.076,0.076 0.20108,0.076 0.2771,0 l 0.27711,-0.27711 c 0.076,-0.076 0.076,-0.20108 0,-0.2771 l -1.37082,-1.36836 0.6474,-0.6474 c 0.42424,-0.42424 1.00788,-0.62778 1.60378,-0.56402 l 1.55964,0.17411 1.6283,-1.6283 c 0.076,-0.076 0.20108,-0.076 0.2771,0 l 0.27711,0.2771 c 0.076,0.076 0.076,0.20109 0,0.27711 l -1.62585,1.62585 0.17411,1.55964 c 0.0638,0.58609 -0.13242,1.17463 -0.56402,1.60377 l -4.46066,4.46067 -3.32772,-3.32772 z m -2.28796,7.55787 -1.94219,-1.94219 c -0.076,-0.076 -0.076,-0.20109 0,-0.27711 l 0.27711,-0.2771 c 0.076,-0.076 0.20108,-0.076 0.2771,0 l 0.69399,0.69399 1.11088,-1.11088 -1.38798,-1.38798 -0.41689,-0.41688 c -0.076,-0.076 -0.076,-0.20109 0,-0.27711 l 0.83132,-0.83131 c 0.076,-0.076 0.20108,-0.076 0.2771,0 l 0.41689,0.41688 3.33262,3.32772 0.41688,0.41688 c 0.076,0.076 0.076,0.20109 0,0.27711 l -0.83376,0.83132 c -0.076,0.076 -0.20109,0.076 -0.27711,0 l -1.80241,-1.80242 -1.11088,1.11088 0.69399,0.69399 c 0.076,0.076 0.076,0.20108 0,0.2771 l -0.2771,0.27711 c -0.0785,0.076 -0.20109,0.076 -0.27956,0 z"
         id="use899"
         style="fill:#ffffff;stroke-width:1.85079" />
    </g>
    <g
       id="g3266"
       transform="matrix(-1,0,0,1,591.53075,0)"
       style="fill:#ffffff;stroke-width:0.728895">
      <path
         fill="currentColor"
         d="m 304.70522,-15.115888 -1.36836,-1.365909 c -0.076,-0.07602 -0.20109,-0.07602 -0.27711,0 l -0.2771,0.277105 c -0.076,0.07602 -0.076,0.201085 0,0.277105 l 1.36836,1.36591 -1.11088,1.110874 -1.36836,-1.368362 c -0.076,-0.07602 -0.20108,-0.07602 -0.2771,0 l -0.27711,0.277106 c -0.076,0.07602 -0.076,0.201085 0,0.277105 l 1.37082,1.368362 -0.6474,0.647397 c -0.42424,0.424241 -1.00788,0.627778 -1.60378,0.564019 l -1.55964,-0.17411 -1.6283,1.628301 c -0.076,0.07602 -0.20108,0.07602 -0.2771,0 l -0.27711,-0.277106 c -0.076,-0.07602 -0.076,-0.201085 0,-0.277105 l 1.62585,-1.625849 -0.17411,-1.559638 c -0.0638,-0.58609 0.13242,-1.174632 0.56402,-1.603778 l 4.46066,-4.460662 3.32772,3.327718 z m 2.28796,-7.557867 1.94219,1.94219 c 0.076,0.07602 0.076,0.201086 0,0.277106 l -0.27711,0.277105 c -0.076,0.07602 -0.20108,0.07602 -0.2771,0 l -0.69399,-0.693989 -1.11088,1.110874 1.38798,1.387979 0.41689,0.416884 c 0.076,0.07602 0.076,0.201086 0,0.277106 l -0.83132,0.831316 c -0.076,0.07602 -0.20108,0.07602 -0.2771,0 l -0.41689,-0.416884 -3.33262,-3.327718 -0.41688,-0.416884 c -0.076,-0.07602 -0.076,-0.201085 0,-0.277105 l 0.83376,-0.831317 c 0.076,-0.07602 0.20109,-0.07602 0.27711,0 l 1.80241,1.802411 1.11087,-1.110873 -0.69398,-0.69399 c -0.076,-0.07602 -0.076,-0.201086 0,-0.277106 l 0.2771,-0.277105 c 0.0785,-0.07602 0.20109,-0.07602 0.27956,0 z"
         id="path3262"
         style="fill:#ffffff;stroke-width:1.85079" />
      <path
         fill="currentColor"
         d="m 286.82553,-3.8916256 1.36836,1.36591 c 0.076,0.076 0.20109,0.076 0.27711,0 l 0.2771,-0.2771 c 0.076,-0.076 0.076,-0.20109 0,-0.27711 l -1.36836,-1.36591 1.11088,-1.11087 1.36836,1.36836 c 0.076,0.076 0.20108,0.076 0.2771,0 l 0.27711,-0.27711 c 0.076,-0.076 0.076,-0.20108 0,-0.2771 l -1.37082,-1.36836 0.6474,-0.6474 c 0.42424,-0.42424 1.00788,-0.62778 1.60378,-0.56402 l 1.55964,0.17411 1.6283,-1.6283 c 0.076,-0.076 0.20108,-0.076 0.2771,0 l 0.27711,0.2771 c 0.076,0.076 0.076,0.20109 0,0.27711 l -1.62585,1.62585 0.17411,1.55964 c 0.0638,0.58609 -0.13242,1.17463 -0.56402,1.60377 l -4.46066,4.46067 -3.32772,-3.32772 z m -2.28796,7.55787 -1.94219,-1.94219 c -0.076,-0.076 -0.076,-0.20109 0,-0.27711 l 0.27711,-0.2771 c 0.076,-0.076 0.20108,-0.076 0.2771,0 l 0.69399,0.69399 1.11088,-1.11088 -1.38798,-1.38798 -0.41689,-0.41688 c -0.076,-0.076 -0.076,-0.20109 0,-0.27711 l 0.83132,-0.83131 c 0.076,-0.076 0.20108,-0.076 0.2771,0 l 0.41689,0.41688 3.33262,3.32772 0.41688,0.41688 c 0.076,0.076 0.076,0.20109 0,0.27711 l -0.83376,0.83132 c -0.076,0.076 -0.20109,0.076 -0.27711,0 l -1.80241,-1.80242 -1.11088,1.11088 0.69399,0.69399 c 0.076,0.076 0.076,0.20108 0,0.2771 l -0.2771,0.27711 c -0.0785,0.076 -0.20109,0.076 -0.27956,0 z"
         id="path3264"
         style="fill:#ffffff;stroke-width:1.85079" />
    </g>
  </g>
</svg>
